<svg width="288" height="107" viewBox="0 0 288 107" fill="none" xmlns="http://www.w3.org/2000/svg">
<g clip-path="url(#clip0_182_5242)">
<path d="M68.8225 72.0792H51.7387V49.6654L48.3856 45.447L27.4561 45.4109L27.4861 28.3271L56.6361 28.3872L68.8225 43.6984V72.0792Z" fill="#14A9FF"/>
<path d="M45.7753 41.0722L26.4512 56.9961L37.3117 70.1756L56.6358 54.2517L45.7753 41.0722Z" fill="#14A9FF"/>
<path d="M69.0803 96.7765H18.3878L0 73.8399V22.4984L18.9526 3.47363H69.0803V20.5574H26.0493L17.0778 29.553V67.8368L26.5841 79.6987H69.0803V96.7765Z" fill="#14A9FF"/>
<path d="M109.007 46.7341C105.476 46.7341 102.413 45.9936 99.8232 44.5074C97.2337 43.0212 95.2337 40.9204 93.8181 38.2C92.4074 35.4795 91.7021 32.2905 91.7021 28.628C91.7021 24.9655 92.3974 21.7815 93.7979 19.0812C95.1934 16.3809 97.1884 14.2852 99.7779 12.799C102.367 11.3128 105.445 10.5723 109.012 10.5723C113.158 10.5723 116.65 11.6 119.481 13.6605C122.312 15.721 124.171 18.6329 125.058 22.4113L116.247 24.4466C115.859 22.3307 115.028 20.7337 113.753 19.6404C112.478 18.5472 110.886 18.0082 108.987 18.0082C107.244 18.0082 105.763 18.4364 104.544 19.2928C103.325 20.1493 102.403 21.3684 101.773 22.9604C101.143 24.5524 100.831 26.4516 100.831 28.6582C100.831 30.8648 101.148 32.7792 101.788 34.3813C102.423 35.9883 103.35 37.2126 104.559 38.0589C105.768 38.9053 107.229 39.3285 108.942 39.3285C110.765 39.3285 112.282 38.8247 113.491 37.8171C114.7 36.8095 115.556 35.3687 116.055 33.4946L125.033 35.2125C124.096 38.8599 122.222 41.6912 119.405 43.7064C116.589 45.7215 113.123 46.7291 109.007 46.7291V46.7341Z" fill="black"/>
<path d="M134.932 46.7088C133.3 46.7088 131.758 46.4368 130.297 45.8877C128.836 45.3385 127.652 44.4821 126.751 43.3234C125.849 42.1596 125.396 40.6533 125.396 38.7994C125.396 36.7993 125.97 35.1469 127.123 33.8471C128.277 32.5474 129.909 31.5751 132.015 30.9302C134.121 30.2854 136.625 29.9629 139.532 29.9629H142.922L142.484 30.7388V29.1871C142.484 27.6052 142.212 26.4515 141.673 25.7261C141.134 25.0006 140.242 24.6379 138.998 24.6379C137.753 24.6379 136.867 24.9603 136.237 25.6052C135.607 26.25 135.194 27.1971 135.003 28.4365L126.529 27.0561C126.851 25.5901 127.511 24.2651 128.504 23.0862C129.496 21.9074 130.892 20.9703 132.69 20.2801C134.489 19.5849 136.746 19.2373 139.456 19.2373C141.844 19.2373 143.89 19.595 145.592 20.3003C147.295 21.0106 148.6 22.2197 149.512 23.9326C150.424 25.6455 150.877 28.0082 150.877 31.0259V38.6734C150.877 39.2226 150.953 39.5853 151.109 39.7616C151.26 39.9379 151.587 40.0286 152.091 40.0286H153.154V46.0791H149.381C147.184 46.0791 145.547 45.5501 144.469 44.4922C143.391 43.4342 142.847 41.8826 142.847 39.8321V38.8649L144.398 39.5198C144.207 40.2301 143.92 40.9959 143.537 41.8171C143.159 42.6382 142.62 43.4241 141.93 44.1647C141.235 44.9053 140.318 45.5149 139.184 45.9935C138.051 46.4721 136.63 46.7088 134.937 46.7088H134.932ZM137.471 41.1924C138.519 41.1924 139.426 40.9606 140.182 40.4921C140.942 40.0236 141.527 39.3485 141.95 38.4568C142.368 37.5701 142.58 36.4971 142.58 35.2376V34.5373H139.94C138.388 34.5373 137.189 34.7388 136.333 35.1419C135.476 35.5449 134.882 36.0386 134.554 36.618C134.222 37.1973 134.061 37.7565 134.061 38.2855C134.061 38.6432 134.146 39.0462 134.328 39.4946C134.504 39.948 134.836 40.341 135.32 40.6785C135.804 41.016 136.524 41.1873 137.476 41.1873L137.471 41.1924Z" fill="black"/>
<path d="M155.698 46.0795V19.938H163.95V25.9633L163.588 25.1421C164.444 23.1421 165.608 21.666 167.084 20.7138C168.56 19.7616 170.217 19.2881 172.056 19.2881C172.57 19.2881 173.104 19.3284 173.653 19.409C174.202 19.4896 174.751 19.6256 175.301 19.8221L174.746 26.9154C173.633 26.6081 172.575 26.457 171.578 26.457C170.676 26.457 169.784 26.6081 168.913 26.9054C168.041 27.2026 167.25 27.7064 166.54 28.4066C165.829 29.1069 165.26 30.0742 164.832 31.2984C164.404 32.5226 164.192 34.0642 164.192 35.9231V46.0896H155.698V46.0795Z" fill="black"/>
<path d="M188.69 46.7334C186.111 46.7334 183.748 46.1742 181.612 45.0508C179.476 43.9274 177.768 42.3404 176.493 40.285C175.219 38.2295 174.579 35.7861 174.579 32.9649C174.579 30.1437 175.199 27.7558 176.443 25.7154C177.687 23.6751 179.37 22.0932 181.501 20.9698C183.632 19.8463 186.025 19.2871 188.69 19.2871C190.156 19.2871 191.647 19.5037 193.154 19.942C194.665 20.3753 196.056 21.1511 197.33 22.2645C198.605 23.3779 199.627 24.9396 200.403 26.9497C201.179 28.9598 201.567 31.5291 201.567 34.6577H180.025V30.2042H193.99L193.36 31.3881C193.229 29.8717 192.937 28.6475 192.479 27.7104C192.02 26.7734 191.446 26.0933 190.761 25.6651C190.076 25.2368 189.305 25.0252 188.448 25.0252C187.27 25.0252 186.307 25.3729 185.557 26.0681C184.806 26.7633 184.252 27.7104 183.899 28.9095C183.541 30.1135 183.365 31.4788 183.365 33.0103C183.365 35.3176 183.778 37.1665 184.61 38.5519C185.441 39.9374 186.776 40.6326 188.615 40.6326C189.743 40.6326 190.731 40.3404 191.567 39.751C192.408 39.1615 193.068 38.2295 193.552 36.9549L201.104 38.7434C200.489 40.6477 199.527 42.1893 198.212 43.3681C196.897 44.547 195.401 45.4035 193.723 45.9324C192.045 46.4664 190.368 46.7284 188.69 46.7284V46.7334Z" fill="black"/>
<path d="M216.893 46.7344C214.314 46.7344 211.951 46.1752 209.815 45.0518C207.679 43.9283 205.971 42.3414 204.697 40.2859C203.422 38.2305 202.782 35.7871 202.782 32.9659C202.782 30.1447 203.402 27.7568 204.646 25.7164C205.891 23.6761 207.573 22.0942 209.704 20.9707C211.835 19.8473 214.228 19.2881 216.893 19.2881C218.359 19.2881 219.851 19.5047 221.357 19.943C222.868 20.3763 224.259 21.1521 225.533 22.2655C226.808 23.3788 227.831 24.9406 228.606 26.9507C229.382 28.9608 229.77 31.5301 229.77 34.6586H208.228V30.2052H222.193L221.563 31.3891C221.432 29.8727 221.14 28.6485 220.682 27.7114C220.223 26.7744 219.649 26.0943 218.964 25.666C218.279 25.2378 217.508 25.0262 216.651 25.0262C215.473 25.0262 214.51 25.3738 213.76 26.0691C213.009 26.7643 212.455 27.7114 212.102 28.9104C211.745 30.1145 211.568 31.4797 211.568 33.0113C211.568 35.3186 211.981 37.1675 212.813 38.5529C213.644 39.9383 214.979 40.6336 216.818 40.6336C217.946 40.6336 218.934 40.3414 219.77 39.7519C220.611 39.1625 221.271 38.2305 221.755 36.9559L229.307 38.7444C228.692 40.6487 227.73 42.1903 226.415 43.3691C225.1 44.548 223.604 45.4044 221.926 45.9334C220.249 46.4674 218.571 46.7294 216.893 46.7294V46.7344Z" fill="black"/>
<path d="M232.454 46.0795V19.938H240.706V25.9633L240.344 25.1421C241.2 23.1421 242.364 21.666 243.84 20.7138C245.316 19.7616 246.973 19.2881 248.812 19.2881C249.326 19.2881 249.86 19.3284 250.409 19.409C250.958 19.4896 251.507 19.6256 252.057 19.8221L251.497 26.9154C250.384 26.6081 249.326 26.457 248.329 26.457C247.427 26.457 246.535 26.6081 245.664 26.9054C244.792 27.2026 244.001 27.7064 243.291 28.4066C242.58 29.1069 242.011 30.0742 241.583 31.2984C241.155 32.5226 240.943 34.0642 240.943 35.9231V46.0896H232.449L232.454 46.0795Z" fill="black"/>
<path d="M93.4648 89.4145V54.5625H118.735V61.9934H102.206V67.6559H116.024V74.6989H102.206V81.9837H119.077V89.4145H93.4699H93.4648Z" fill="black"/>
<path d="M130.6 90.0651C128.388 90.0651 126.479 89.521 124.862 88.4328C123.249 87.3447 122.015 85.7728 121.159 83.7275C120.302 81.6771 119.874 79.1934 119.874 76.2714C119.874 73.3494 120.307 70.896 121.169 68.8657C122.03 66.8304 123.275 65.2838 124.897 64.2208C126.519 63.1578 128.469 62.6238 130.741 62.6238C132.756 62.6238 134.489 63.0772 135.935 63.979C137.381 64.8808 138.585 66.3418 139.552 68.3619H138.706V53.1123H147.199V89.4203H139.139V84.2413L139.209 84.6041C138.272 86.4933 137.078 87.8736 135.627 88.7553C134.177 89.6369 132.499 90.0752 130.595 90.0752L130.6 90.0651ZM133.839 83.7728C134.872 83.7728 135.789 83.5008 136.585 82.9516C137.381 82.4025 138.01 81.5763 138.474 80.473C138.932 79.3697 139.164 77.9994 139.164 76.3722C139.164 73.9187 138.665 72.0597 137.663 70.7952C136.66 69.5307 135.411 68.896 133.91 68.896C132.328 68.896 131.078 69.571 130.156 70.9162C129.234 72.2613 128.776 74.1152 128.776 76.4729C128.776 78.8307 129.224 80.5335 130.121 81.8332C131.018 83.133 132.257 83.7829 133.839 83.7829V83.7728Z" fill="black"/>
<path d="M162.041 99.5061C157.683 99.5061 154.444 98.9418 152.323 97.8134C150.202 96.6849 149.139 94.9468 149.139 92.6092C149.139 91.1231 149.522 89.9644 150.287 89.123C151.053 88.2817 151.995 87.6872 153.109 87.3295C152.509 86.8761 152.046 86.332 151.718 85.6973C151.386 85.0625 151.224 84.3723 151.224 83.6267C151.224 82.6091 151.542 81.7274 152.182 80.9768C152.816 80.2261 153.728 79.672 154.907 79.3193C153.632 78.5133 152.64 77.4805 151.93 76.221C151.219 74.9616 150.867 73.5409 150.867 71.959C150.867 70.0849 151.35 68.4526 152.318 67.0571C153.285 65.6617 154.635 64.5735 156.373 63.7876C158.106 63.0067 160.111 62.6137 162.388 62.6137C164.665 62.6137 166.691 63.0067 168.414 63.7876C170.142 64.5684 171.492 65.6616 172.469 67.0672C173.446 68.4728 173.935 70.1 173.935 71.959C173.935 73.818 173.451 75.415 172.484 76.8105C171.517 78.206 170.162 79.2941 168.419 80.08C166.676 80.8609 164.66 81.2539 162.368 81.2539H160.816C159.396 81.2539 158.685 81.6166 158.685 82.3421C158.685 83.0675 159.411 83.3849 160.862 83.3849H166.162C167.854 83.3849 169.325 83.5914 170.565 83.9995C171.809 84.4126 172.842 84.9819 173.663 85.7174C174.484 86.453 175.104 87.3094 175.517 88.2968C175.93 89.2792 176.132 90.3472 176.132 91.4908C176.132 94.1861 175.028 96.1962 172.827 97.5161C170.625 98.8411 167.265 99.5011 162.746 99.5011H162.046L162.041 99.5061ZM162.282 94.3523H162.912C166.011 94.3523 167.557 93.4254 167.557 91.5714C167.557 90.8611 167.285 90.2666 166.746 89.7931C166.207 89.3195 165.194 89.0777 163.708 89.0777H160.731C159.955 89.0777 159.219 89.2792 158.529 89.6822C157.834 90.0853 157.486 90.7654 157.486 91.7175C157.486 92.6042 157.874 93.2642 158.65 93.7025C159.426 94.1408 160.635 94.3574 162.282 94.3574V94.3523ZM162.378 76.0749C163.522 76.0749 164.414 75.7122 165.053 74.9868C165.688 74.2613 166.011 73.2537 166.011 71.964C166.011 70.6743 165.693 69.6617 165.053 68.9262C164.414 68.1907 163.522 67.8229 162.378 67.8229C161.235 67.8229 160.363 68.1907 159.713 68.9262C159.068 69.6617 158.746 70.6743 158.746 71.964C158.746 73.2537 159.068 74.2613 159.713 74.9868C160.358 75.7122 161.245 76.0749 162.378 76.0749ZM166.081 66.8052V64.1201C166.081 62.0696 166.655 60.523 167.799 59.4751C168.943 58.4273 170.681 57.9033 173.003 57.9033H175.255V63.9538H172.207C171.708 63.9538 171.381 64.0445 171.225 64.2208C171.069 64.3971 170.993 64.7599 170.993 65.309V66.8103H166.081V66.8052Z" fill="black"/>
<path d="M190.238 90.0655C187.658 90.0655 185.296 89.5063 183.16 88.3828C181.019 87.2594 179.316 85.6725 178.041 83.617C176.767 81.5616 176.132 79.1182 176.132 76.297C176.132 73.4758 176.752 71.0878 177.996 69.0475C179.24 67.0071 180.923 65.4252 183.054 64.3018C185.185 63.1783 187.578 62.6191 190.243 62.6191C191.709 62.6191 193.2 62.8358 194.706 63.2741C196.213 63.7073 197.608 64.4832 198.883 65.5965C200.157 66.7099 201.18 68.2716 201.956 70.2817C202.732 72.2919 203.12 74.8612 203.12 77.9897H181.578V73.5362H195.543L194.913 74.7201C194.782 73.2037 194.49 71.9795 194.031 71.0425C193.573 70.1054 192.999 69.4253 192.313 68.9971C191.628 68.5689 190.858 68.3573 190.001 68.3573C188.822 68.3573 187.86 68.7049 187.109 69.4001C186.359 70.0953 185.805 71.0425 185.452 72.2415C185.094 73.4455 184.918 74.8108 184.918 76.3423C184.918 78.6497 185.331 80.4986 186.162 81.884C186.993 83.2694 188.329 83.9646 190.167 83.9646C191.296 83.9646 192.283 83.6724 193.12 83.083C193.961 82.4936 194.621 81.5616 195.104 80.287L202.656 82.0754C202.042 83.9797 201.079 85.5213 199.765 86.7002C198.45 87.879 196.953 88.7355 195.276 89.2645C193.598 89.7985 191.921 90.0604 190.243 90.0604L190.238 90.0655Z" fill="black"/>
<path d="M215.342 90.0651C213.13 90.0651 211.221 89.521 209.604 88.4328C207.992 87.3447 206.757 85.7728 205.901 83.7275C205.044 81.6771 204.616 79.1934 204.616 76.2714C204.616 73.3494 205.049 70.896 205.911 68.8657C206.772 66.8304 208.017 65.2838 209.639 64.2208C211.261 63.1578 213.211 62.6238 215.483 62.6238C217.498 62.6238 219.231 63.0772 220.677 63.979C222.123 64.8808 223.327 66.3418 224.294 68.3619H223.448V53.1123H231.942V89.4203H223.881V84.2413L223.952 84.6041C223.015 86.4933 221.821 87.8736 220.37 88.7553C218.919 89.6369 217.241 90.0752 215.337 90.0752L215.342 90.0651ZM218.586 83.7728C219.619 83.7728 220.536 83.5008 221.332 82.9516C222.133 82.4025 222.758 81.5763 223.221 80.473C223.68 79.3697 223.911 77.9994 223.911 76.3722C223.911 73.9187 223.413 72.0597 222.41 70.7952C221.407 69.5307 220.158 68.896 218.657 68.896C217.075 68.896 215.825 69.571 214.904 70.9162C213.982 72.2613 213.523 74.1152 213.523 76.4729C213.523 78.8307 213.972 80.5335 214.868 81.8332C215.765 83.133 217.004 83.7829 218.586 83.7829V83.7728Z" fill="black"/>
</g>
<defs>
<clipPath id="clip0_182_5242">
<rect width="287.853" height="106.078" fill="white"/>
</clipPath>
</defs>
</svg>
