<svg width="1216" height="706" viewBox="0 0 1216 706" fill="none" xmlns="http://www.w3.org/2000/svg">
<g clip-path="url(#clip0_486_85)">
<path d="M69.459 -82.3066H107.243V-32.7169L114.661 -23.3839L160.981 -23.3041L160.901 14.4932L96.4076 14.3735L69.459 -19.5151V-82.3066Z" fill="#009EFA"/>
<path d="M248.967 73.9873H211.183V24.3975L203.765 15.0645L157.445 14.9848L157.525 -22.8125L222.018 -22.6929L248.967 11.1957V73.9873Z" fill="#009EFA"/>
<path d="M197.988 5.36271L155.234 40.5938L179.263 69.753L222.017 34.5219L197.988 5.36271Z" fill="#009EFA"/>
<path d="M94.8926 29.3301H132.69V78.9332L140.108 88.2528L186.414 88.3459L186.348 126.13L121.855 126.01L94.8926 92.1216V29.3301Z" fill="#009EFA"/>
<path d="M164.588 33.5131L121.834 68.7441L145.862 97.9034L188.616 62.6723L164.588 33.5131Z" fill="#009EFA"/>
<path d="M267.526 185.132H229.742V135.529L222.323 126.196L176.004 126.116L176.084 88.332L240.564 88.4517L267.526 122.327V185.132Z" fill="#009EFA"/>
<path d="M216.549 116.497L173.795 151.729L197.823 180.888L240.577 145.657L216.549 116.497Z" fill="#009EFA"/>
<path d="M113.451 140.461H151.235V190.064L158.667 199.384L204.973 199.477L204.906 237.261L140.413 237.141L113.451 203.253V140.461Z" fill="#009EFA"/>
<path d="M183.156 144.656L140.402 179.887L164.431 209.046L207.185 173.815L183.156 144.656Z" fill="#009EFA"/>
<path d="M292.973 296.769H255.176V247.165L247.757 237.846L201.451 237.753L201.518 199.969L266.011 200.088L292.973 233.977V296.769Z" fill="#009EFA"/>
<path d="M241.988 228.13L199.234 263.361L223.263 292.521L266.017 257.29L241.988 228.13Z" fill="#009EFA"/>
<path d="M138.898 252.111H176.682V301.701L184.101 311.034L230.42 311.114L230.34 348.911L165.847 348.791L138.898 314.903V252.111Z" fill="#009EFA"/>
<path d="M208.605 256.281L165.852 291.512L189.88 320.671L232.634 285.44L208.605 256.281Z" fill="#009EFA"/>
<path d="M309.842 407.901H272.058V358.312L264.64 348.979L218.32 348.886L218.4 311.102L282.893 311.221L309.842 345.11V407.901Z" fill="#009EFA"/>
<path d="M258.871 339.253L216.117 374.484L240.146 403.644L282.9 368.413L258.871 339.253Z" fill="#009EFA"/>
<path d="M155.77 363.242H193.553V412.832L200.985 422.165L247.291 422.258L247.225 460.042L182.731 459.922L155.77 426.034V363.242Z" fill="#009EFA"/>
<path d="M225.478 367.412L182.725 402.643L206.753 431.802L249.507 396.571L225.478 367.412Z" fill="#009EFA"/>
<path d="M335.289 519.537H297.505V469.947L290.074 460.614L243.768 460.534L243.834 422.75L308.327 422.87L335.289 456.745V519.537Z" fill="#009EFA"/>
<path d="M284.328 450.888L241.574 486.119L265.603 515.278L308.357 480.047L284.328 450.888Z" fill="#009EFA"/>
<path d="M181.215 474.879H218.999V524.482L226.417 533.802L272.737 533.895L272.657 571.679L208.164 571.559L181.215 537.67V474.879Z" fill="#009EFA"/>
<path d="M250.936 479.046L208.182 514.277L232.21 543.437L274.964 508.206L250.936 479.046Z" fill="#009EFA"/>
<path d="M353.848 630.683H316.051V581.08L308.632 571.747L262.326 571.667L262.393 533.883L326.886 534.002L353.848 567.891V630.683Z" fill="#009EFA"/>
<path d="M302.879 562.017L260.125 597.248L284.154 626.407L326.907 591.176L302.879 562.017Z" fill="#009EFA"/>
<path d="M199.775 586.012H237.559V635.615L244.978 644.948L291.284 645.028L291.217 682.812L226.724 682.692L199.775 648.803V586.012Z" fill="#009EFA"/>
<path d="M269.498 590.167L226.744 625.398L250.773 654.558L293.526 619.327L269.498 590.167Z" fill="#009EFA"/>
<path d="M379.282 742.319H341.498V692.73L334.079 683.397L287.76 683.304L287.84 645.52L352.32 645.639L379.282 679.528V742.319Z" fill="#009EFA"/>
<path d="M328.328 673.656L285.574 708.887L309.603 738.046L352.357 702.815L328.328 673.656Z" fill="#009EFA"/>
<path d="M225.209 697.662H262.993V747.252L270.425 756.585L316.731 756.678L316.664 794.462L252.171 794.342L225.209 760.454V697.662Z" fill="#009EFA"/>
<path d="M294.937 701.814L252.184 737.045L276.212 766.204L318.966 730.973L294.937 701.814Z" fill="#009EFA"/>
<path d="M271.715 -82.3066H309.499V-32.7169L316.931 -23.3839L363.237 -23.3041L363.17 14.4932L298.677 14.3735L271.715 -19.5151V-82.3066Z" fill="#009EFA"/>
<path d="M451.237 73.9873H413.439V24.3975L406.021 15.0645L359.715 14.9848L359.781 -22.8125L424.275 -22.6929L451.237 11.1957V73.9873Z" fill="#009EFA"/>
<path d="M400.236 5.35684L357.482 40.5879L381.511 69.7471L424.265 34.5161L400.236 5.35684Z" fill="#009EFA"/>
<path d="M297.162 29.3301H334.946V78.9332L342.365 88.2528L388.671 88.3459L388.604 126.13L324.111 126.01L297.162 92.1216V29.3301Z" fill="#009EFA"/>
<path d="M366.846 33.4975L324.092 68.7285L348.12 97.8877L390.874 62.6567L366.846 33.4975Z" fill="#009EFA"/>
<path d="M469.78 185.132H431.996V135.529L424.577 126.196L378.258 126.116L378.338 88.332L442.831 88.4517L469.78 122.327V185.132Z" fill="#009EFA"/>
<path d="M418.797 116.476L376.043 151.707L400.071 180.866L442.825 145.635L418.797 116.476Z" fill="#009EFA"/>
<path d="M315.707 140.461H353.504V190.064L360.923 199.384L407.229 199.477L407.162 237.261L342.669 237.141L315.707 203.253V140.461Z" fill="#009EFA"/>
<path d="M385.404 144.648L342.65 179.879L366.679 209.038L409.433 173.807L385.404 144.648Z" fill="#009EFA"/>
<path d="M495.229 296.769H457.445V247.165L450.013 237.846L403.707 237.753L403.773 199.969L468.267 200.088L495.229 233.977V296.769Z" fill="#009EFA"/>
<path d="M444.246 228.115L401.492 263.346L425.521 292.505L468.275 257.274L444.246 228.115Z" fill="#009EFA"/>
<path d="M341.154 252.111H378.938V301.701L386.357 311.034L432.676 311.114L432.596 348.911L368.116 348.791L341.154 314.903V252.111Z" fill="#009EFA"/>
<path d="M410.855 256.273L368.102 291.504L392.13 320.663L434.884 285.432L410.855 256.273Z" fill="#009EFA"/>
<path d="M512.1 407.901H474.316V358.312L466.898 348.979L420.592 348.886L420.658 311.102L485.152 311.221L512.1 345.11V407.901Z" fill="#009EFA"/>
<path d="M461.121 339.246L418.367 374.477L442.396 403.636L485.15 368.405L461.121 339.246Z" fill="#009EFA"/>
<path d="M358.025 363.242H395.823V412.832L403.241 422.165L449.547 422.258L449.481 460.042L384.987 459.922L358.025 426.034V363.242Z" fill="#009EFA"/>
<path d="M427.728 367.404L384.975 402.635L409.003 431.794L451.757 396.563L427.728 367.404Z" fill="#009EFA"/>
<path d="M537.545 519.537H499.761V469.947L492.343 460.614L446.023 460.534L446.09 422.75L510.583 422.87L537.545 456.745V519.537Z" fill="#009EFA"/>
<path d="M486.576 450.878L443.822 486.109L467.851 515.269L510.605 480.038L486.576 450.878Z" fill="#009EFA"/>
<path d="M383.471 474.879H421.255V524.482L428.673 533.802L474.992 533.895L474.926 571.679L410.433 571.559L383.471 537.67V474.879Z" fill="#009EFA"/>
<path d="M453.184 479.038L410.43 514.27L434.458 543.429L477.212 508.198L453.184 479.038Z" fill="#009EFA"/>
<path d="M556.106 630.683H518.322V581.08L510.89 571.747L464.584 571.667L464.65 533.883L529.144 534.002L556.106 567.891V630.683Z" fill="#009EFA"/>
<path d="M505.139 561.999L462.385 597.23L486.413 626.39L529.167 591.159L505.139 561.999Z" fill="#009EFA"/>
<path d="M402.031 586.012H439.815V635.615L447.234 644.948L493.553 645.028L493.473 682.812L428.98 682.692L402.031 648.803V586.012Z" fill="#009EFA"/>
<path d="M471.746 590.16L428.992 625.391L453.021 654.55L495.774 619.319L471.746 590.16Z" fill="#009EFA"/>
<path d="M581.537 742.319H543.753V692.73L536.335 683.397L490.016 683.304L490.095 645.52L554.589 645.639L581.537 679.528V742.319Z" fill="#009EFA"/>
<path d="M530.576 673.646L487.822 708.877L511.851 738.036L554.605 702.805L530.576 673.646Z" fill="#009EFA"/>
<path d="M427.465 697.662H465.262V747.252L472.681 756.585L518.987 756.678L518.92 794.462L454.427 794.342L427.465 760.454V697.662Z" fill="#009EFA"/>
<path d="M497.184 701.806L454.43 737.037L478.458 766.196L521.212 730.965L497.184 701.806Z" fill="#009EFA"/>
<path d="M459.93 -82.3066H497.714V-32.7169L505.145 -23.3839L551.451 -23.3041L551.385 14.4932L486.892 14.3735L459.93 -19.5151V-82.3066Z" fill="#009EFA"/>
<path d="M639.449 73.9873H601.665V24.3975L594.234 15.0645L547.928 14.9848L547.994 -22.8125L612.488 -22.6929L639.449 11.1957V73.9873Z" fill="#009EFA"/>
<path d="M588.453 5.3471L545.699 40.5781L569.728 69.7374L612.482 34.5063L588.453 5.3471Z" fill="#009EFA"/>
<path d="M485.377 29.3301H523.161V78.9332L530.579 88.2528L576.899 88.3459L576.819 126.13L512.326 126.01L485.377 92.1216V29.3301Z" fill="#009EFA"/>
<path d="M555.055 33.4955L512.301 68.7266L536.329 97.8858L579.083 62.6548L555.055 33.4955Z" fill="#009EFA"/>
<path d="M658.01 185.132H620.213V135.529L612.794 126.196L566.488 126.116L566.555 88.332L631.048 88.4517L658.01 122.327V185.132Z" fill="#009EFA"/>
<path d="M607.006 116.476L564.252 151.707L588.28 180.866L631.034 145.635L607.006 116.476Z" fill="#009EFA"/>
<path d="M503.936 140.461H541.72V190.064L549.138 199.384L595.457 199.477L595.378 237.261L530.884 237.141L503.936 203.253V140.461Z" fill="#009EFA"/>
<path d="M573.623 144.626L530.869 179.857L554.898 209.017L597.651 173.786L573.623 144.626Z" fill="#009EFA"/>
<path d="M683.442 296.769H645.658V247.165L638.239 237.846L591.92 237.753L592 199.969L656.493 200.088L683.442 233.977V296.769Z" fill="#009EFA"/>
<path d="M632.453 228.101L589.699 263.332L613.728 292.491L656.482 257.26L632.453 228.101Z" fill="#009EFA"/>
<path d="M529.369 252.111H567.153V301.701L574.585 311.034L620.891 311.114L620.824 348.911L556.331 348.791L529.369 314.903V252.111Z" fill="#009EFA"/>
<path d="M599.061 256.259L556.307 291.49L580.335 320.649L623.089 285.418L599.061 256.259Z" fill="#009EFA"/>
<path d="M700.326 407.901H662.529V358.312L655.111 348.979L608.805 348.886L608.871 311.102L673.364 311.221L700.326 345.11V407.901Z" fill="#009EFA"/>
<path d="M649.326 339.232L606.572 374.463L630.601 403.622L673.355 368.391L649.326 339.232Z" fill="#009EFA"/>
<path d="M546.254 363.242H584.038V412.832L591.456 422.165L637.776 422.258L637.696 460.042L573.203 459.922L546.254 426.034V363.242Z" fill="#009EFA"/>
<path d="M615.945 367.382L573.191 402.613L597.22 431.773L639.974 396.541L615.945 367.382Z" fill="#009EFA"/>
<path d="M725.76 519.537H687.976V469.947L680.558 460.614L634.238 460.534L634.318 422.75L698.811 422.87L725.76 456.745V519.537Z" fill="#009EFA"/>
<path d="M674.783 450.865L632.029 486.096L656.058 515.255L698.812 480.024L674.783 450.865Z" fill="#009EFA"/>
<path d="M571.686 474.879H609.469V524.482L616.901 533.802L663.207 533.895L663.141 571.679L598.647 571.559L571.686 537.67V474.879Z" fill="#009EFA"/>
<path d="M641.391 479.037L598.637 514.268L622.665 543.427L665.419 508.196L641.391 479.037Z" fill="#009EFA"/>
<path d="M744.321 630.683H706.537V581.08L699.118 571.747L652.799 571.667L652.865 533.883L717.359 534.002L744.321 567.891V630.683Z" fill="#009EFA"/>
<path d="M693.346 561.999L650.592 597.23L674.62 626.39L717.374 591.159L693.346 561.999Z" fill="#009EFA"/>
<path d="M590.246 586.012H628.03V635.615L635.449 644.948L681.768 645.028L681.701 682.812L617.208 682.692L590.246 648.803V586.012Z" fill="#009EFA"/>
<path d="M659.953 590.16L617.199 625.391L641.228 654.55L683.982 619.319L659.953 590.16Z" fill="#009EFA"/>
<path d="M769.764 742.319H731.967V692.73L724.548 683.397L678.242 683.304L678.309 645.52L742.802 645.639L769.764 679.528V742.319Z" fill="#009EFA"/>
<path d="M718.781 673.632L676.027 708.863L700.056 738.022L742.81 702.791L718.781 673.632Z" fill="#009EFA"/>
<path d="M615.691 697.662H653.475V747.252L660.894 756.585L707.2 756.678L707.133 794.462L642.64 794.342L615.691 760.454V697.662Z" fill="#009EFA"/>
<path d="M685.4 701.783L642.646 737.014L666.675 766.173L709.429 730.942L685.4 701.783Z" fill="#009EFA"/>
<path d="M55.5393 73.9873H17.7421V24.3975L10.3235 15.0645L-35.9824 14.9848L-35.916 -22.8125L28.5774 -22.6929L55.5393 11.1957V73.9873Z" fill="#009EFA"/>
<path d="M4.55074 5.37834L-38.2031 40.6094L-14.1747 69.7686L28.5792 34.5376L4.55074 5.37834Z" fill="#009EFA"/>
<path d="M74.0862 185.132H36.3022V135.529L28.8837 126.196L-17.4355 126.116L-17.3558 88.332L47.1375 88.4517L74.0862 122.327V185.132Z" fill="#009EFA"/>
<path d="M23.1132 116.497L-19.6406 151.729L4.38784 180.888L47.1417 145.657L23.1132 116.497Z" fill="#009EFA"/>
<path d="M-79.9883 140.461H-42.191V190.064L-34.7725 199.384L11.5335 199.477L11.467 237.261L-53.0263 237.141L-79.9883 203.253V140.461Z" fill="#009EFA"/>
<path d="M-10.2657 144.669L-53.0195 179.9L-28.9911 209.06L13.7628 173.829L-10.2657 144.669Z" fill="#009EFA"/>
<path d="M99.5335 296.769H61.7495V247.165L54.3177 237.846L8.01172 237.753L8.0782 199.969L72.5715 200.088L99.5335 233.977V296.769Z" fill="#009EFA"/>
<path d="M48.5625 228.134L5.80859 263.365L29.8371 292.524L72.5909 257.293L48.5625 228.134Z" fill="#009EFA"/>
<path d="M-54.541 252.111H-16.7571V301.701L-9.33852 311.034L36.9807 311.114L36.901 348.911L-27.5791 348.791L-54.541 314.903V252.111Z" fill="#009EFA"/>
<path d="M15.1836 256.294L-27.5703 291.525L-3.54184 320.685L39.212 285.454L15.1836 256.294Z" fill="#009EFA"/>
<path d="M116.405 407.901H78.621V358.312L71.2024 348.979L24.8965 348.886L24.963 311.102L89.4563 311.221L116.405 345.11V407.901Z" fill="#009EFA"/>
<path d="M65.4492 339.267L22.6953 374.498L46.7238 403.657L89.4777 368.426L65.4492 339.267Z" fill="#009EFA"/>
<path d="M-37.6699 363.242H0.127335V412.832L7.54586 422.165L53.8518 422.258L53.7854 460.042L-10.708 459.922L-37.6699 426.034V363.242Z" fill="#009EFA"/>
<path d="M32.0566 367.425L-10.6973 402.656L13.3312 431.815L56.0851 396.584L32.0566 367.425Z" fill="#009EFA"/>
<path d="M141.85 519.537H104.066V469.947L96.6341 460.614L50.3281 460.534L50.3946 422.75L114.888 422.87L141.85 456.745V519.537Z" fill="#009EFA"/>
<path d="M90.9043 450.9L48.1504 486.131L72.1788 515.29L114.933 480.059L90.9043 450.9Z" fill="#009EFA"/>
<path d="M-12.2246 474.879H25.5594V524.482L32.9779 533.802L79.2971 533.895L79.2307 571.679L14.7373 571.559L-12.2246 537.67V474.879Z" fill="#009EFA"/>
<path d="M57.5117 479.058L14.7578 514.289L38.7863 543.448L81.5402 508.217L57.5117 479.058Z" fill="#009EFA"/>
<path d="M160.408 630.683H122.624V581.08L115.193 571.747L68.8867 571.667L68.9532 533.883L133.447 534.002L160.408 567.891V630.683Z" fill="#009EFA"/>
<path d="M109.467 562.023L66.7129 597.254L90.7414 626.413L133.495 591.182L109.467 562.023Z" fill="#009EFA"/>
<path d="M6.33594 586.012H44.1199V635.615L51.5384 644.948L97.8577 645.028L97.7779 682.812L33.2846 682.692L6.33594 648.803V586.012Z" fill="#009EFA"/>
<path d="M76.0742 590.179L33.3203 625.41L57.3488 654.569L100.103 619.338L76.0742 590.179Z" fill="#009EFA"/>
<path d="M185.842 742.319H148.058V692.73L140.64 683.397L94.3203 683.304L94.4001 645.52L158.893 645.639L185.842 679.528V742.319Z" fill="#009EFA"/>
<path d="M134.891 673.667L92.1367 708.898L116.165 738.058L158.919 702.827L134.891 673.667Z" fill="#009EFA"/>
<path d="M31.7676 697.662H69.5515V747.252L76.9834 756.585L123.289 756.678L123.223 794.462L58.7295 794.342L31.7676 760.454V697.662Z" fill="#009EFA"/>
<path d="M101.512 701.826L58.7578 737.057L82.7863 766.216L125.54 730.985L101.512 701.826Z" fill="#009EFA"/>
</g>
<g clip-path="url(#clip1_486_85)">
<path d="M846.238 -82.3066H884.022V-32.7169L891.441 -23.3839L937.76 -23.3041L937.68 14.4932L873.187 14.3735L846.238 -19.5151V-82.3066Z" fill="#009EFA"/>
<path d="M1025.75 73.9873H987.962V24.3975L980.544 15.0645L934.225 14.9848L934.304 -22.8125L998.798 -22.6929L1025.75 11.1957V73.9873Z" fill="#009EFA"/>
<path d="M974.768 5.36271L932.014 40.5938L956.042 69.753L998.796 34.5219L974.768 5.36271Z" fill="#009EFA"/>
<path d="M871.672 29.3301H909.469V78.9332L916.888 88.2528L963.194 88.3459L963.127 126.13L898.634 126.01L871.672 92.1216V29.3301Z" fill="#009EFA"/>
<path d="M941.367 33.5131L898.613 68.7441L922.642 97.9034L965.396 62.6723L941.367 33.5131Z" fill="#009EFA"/>
<path d="M1044.3 185.132H1006.52V135.529L999.102 126.196L952.783 126.116L952.863 88.332L1017.34 88.4517L1044.3 122.327V185.132Z" fill="#009EFA"/>
<path d="M993.328 116.497L950.574 151.729L974.603 180.888L1017.36 145.657L993.328 116.497Z" fill="#009EFA"/>
<path d="M890.23 140.461H928.014V190.064L935.446 199.384L981.752 199.477L981.686 237.261L917.192 237.141L890.23 203.253V140.461Z" fill="#009EFA"/>
<path d="M959.936 144.656L917.182 179.887L941.21 209.046L983.964 173.815L959.936 144.656Z" fill="#009EFA"/>
<path d="M1069.75 296.769H1031.95V247.165L1024.54 237.846L978.23 237.753L978.297 199.969L1042.79 200.088L1069.75 233.977V296.769Z" fill="#009EFA"/>
<path d="M1018.77 228.13L976.014 263.361L1000.04 292.521L1042.8 257.29L1018.77 228.13Z" fill="#009EFA"/>
<path d="M915.678 252.111H953.462V301.701L960.88 311.034L1007.2 311.114L1007.12 348.911L942.626 348.791L915.678 314.903V252.111Z" fill="#009EFA"/>
<path d="M985.387 256.281L942.633 291.512L966.661 320.671L1009.42 285.44L985.387 256.281Z" fill="#009EFA"/>
<path d="M1086.62 407.901H1048.84V358.312L1041.42 348.979L995.1 348.886L995.179 311.102L1059.67 311.221L1086.62 345.11V407.901Z" fill="#009EFA"/>
<path d="M1035.65 339.253L992.896 374.484L1016.92 403.644L1059.68 368.413L1035.65 339.253Z" fill="#009EFA"/>
<path d="M932.549 363.242H970.333V412.832L977.765 422.165L1024.07 422.258L1024 460.042L959.511 459.922L932.549 426.034V363.242Z" fill="#009EFA"/>
<path d="M1002.26 367.412L959.504 402.643L983.532 431.802L1026.29 396.571L1002.26 367.412Z" fill="#009EFA"/>
<path d="M1112.07 519.537H1074.29V469.947L1066.85 460.614L1020.55 460.534L1020.62 422.75L1085.11 422.87L1112.07 456.745V519.537Z" fill="#009EFA"/>
<path d="M1061.11 450.888L1018.36 486.119L1042.38 515.278L1085.14 480.047L1061.11 450.888Z" fill="#009EFA"/>
<path d="M957.996 474.879H995.78V524.482L1003.2 533.802L1049.52 533.895L1049.44 571.679L984.945 571.559L957.996 537.67V474.879Z" fill="#009EFA"/>
<path d="M1027.72 479.046L984.963 514.277L1008.99 543.437L1051.75 508.206L1027.72 479.046Z" fill="#009EFA"/>
<path d="M1130.63 630.683H1092.83V581.08L1085.41 571.747L1039.11 571.667L1039.17 533.883L1103.67 534.002L1130.63 567.891V630.683Z" fill="#009EFA"/>
<path d="M1079.66 562.017L1036.9 597.248L1060.93 626.407L1103.69 591.176L1079.66 562.017Z" fill="#009EFA"/>
<path d="M976.555 586.012H1014.34V635.615L1021.76 644.948L1068.06 645.028L1068 682.812L1003.5 682.692L976.555 648.803V586.012Z" fill="#009EFA"/>
<path d="M1046.28 590.167L1003.52 625.398L1027.55 654.558L1070.31 619.327L1046.28 590.167Z" fill="#009EFA"/>
<path d="M1156.06 742.319H1118.28V692.73L1110.86 683.397L1064.54 683.304L1064.62 645.52L1129.1 645.639L1156.06 679.528V742.319Z" fill="#009EFA"/>
<path d="M1105.11 673.656L1062.35 708.887L1086.38 738.046L1129.14 702.815L1105.11 673.656Z" fill="#009EFA"/>
<path d="M1001.99 697.662H1039.77V747.252L1047.2 756.585L1093.51 756.678L1093.44 794.462L1028.95 794.342L1001.99 760.454V697.662Z" fill="#009EFA"/>
<path d="M1071.71 701.814L1028.96 737.045L1052.99 766.204L1095.74 730.973L1071.71 701.814Z" fill="#009EFA"/>
<path d="M1048.49 -82.3066H1086.28V-32.7169L1093.71 -23.3839L1140.02 -23.3041L1139.95 14.4932L1075.46 14.3735L1048.49 -19.5151V-82.3066Z" fill="#009EFA"/>
<path d="M1228.02 73.9873H1190.22V24.3975L1182.8 15.0645L1136.49 14.9848L1136.56 -22.8125L1201.05 -22.6929L1228.02 11.1957V73.9873Z" fill="#009EFA"/>
<path d="M1177.02 5.35684L1134.26 40.5879L1158.29 69.7471L1201.04 34.5161L1177.02 5.35684Z" fill="#009EFA"/>
<path d="M1073.94 29.3301H1111.73V78.9332L1119.14 88.2528L1165.45 88.3459L1165.38 126.13L1100.89 126.01L1073.94 92.1216V29.3301Z" fill="#009EFA"/>
<path d="M1143.62 33.4975L1100.87 68.7285L1124.9 97.8877L1167.65 62.6567L1143.62 33.4975Z" fill="#009EFA"/>
<path d="M1246.56 185.132H1208.77V135.529L1201.36 126.196L1155.04 126.116L1155.12 88.332L1219.61 88.4517L1246.56 122.327V185.132Z" fill="#009EFA"/>
<path d="M1195.58 116.476L1152.82 151.707L1176.85 180.866L1219.6 145.635L1195.58 116.476Z" fill="#009EFA"/>
<path d="M1092.49 140.461H1130.28V190.064L1137.7 199.384L1184.01 199.477L1183.94 237.261L1119.45 237.141L1092.49 203.253V140.461Z" fill="#009EFA"/>
<path d="M1162.18 144.648L1119.43 179.879L1143.46 209.038L1186.21 173.807L1162.18 144.648Z" fill="#009EFA"/>
<path d="M1272.01 296.769H1234.22V247.165L1226.79 237.846L1180.49 237.753L1180.55 199.969L1245.05 200.088L1272.01 233.977V296.769Z" fill="#009EFA"/>
<path d="M1221.03 228.115L1178.27 263.346L1202.3 292.505L1245.05 257.274L1221.03 228.115Z" fill="#009EFA"/>
<path d="M1117.93 252.111H1155.72V301.701L1163.14 311.034L1209.46 311.114L1209.38 348.911L1144.9 348.791L1117.93 314.903V252.111Z" fill="#009EFA"/>
<path d="M1187.63 256.273L1144.88 291.504L1168.91 320.663L1211.66 285.432L1187.63 256.273Z" fill="#009EFA"/>
<path d="M1288.88 407.901H1251.09V358.312L1243.68 348.979L1197.37 348.886L1197.44 311.102L1261.93 311.221L1288.88 345.11V407.901Z" fill="#009EFA"/>
<path d="M1237.9 339.246L1195.14 374.477L1219.17 403.636L1261.93 368.405L1237.9 339.246Z" fill="#009EFA"/>
<path d="M1134.8 363.242H1172.6V412.832L1180.02 422.165L1226.33 422.258L1226.26 460.042L1161.77 459.922L1134.8 426.034V363.242Z" fill="#009EFA"/>
<path d="M1204.51 367.404L1161.75 402.635L1185.78 431.794L1228.54 396.563L1204.51 367.404Z" fill="#009EFA"/>
<path d="M1160.25 474.879H1198.03V524.482L1205.45 533.802L1251.77 533.895L1251.71 571.679L1187.21 571.559L1160.25 537.67V474.879Z" fill="#009EFA"/>
<path d="M1229.96 479.038L1187.21 514.27L1211.24 543.429L1253.99 508.198L1229.96 479.038Z" fill="#009EFA"/>
<path d="M1178.81 586.012H1216.59V635.615L1224.01 644.948L1270.33 645.028L1270.25 682.812L1205.76 682.692L1178.81 648.803V586.012Z" fill="#009EFA"/>
<path d="M1248.53 590.16L1205.77 625.391L1229.8 654.55L1272.55 619.319L1248.53 590.16Z" fill="#009EFA"/>
<path d="M1204.24 697.662H1242.04V747.252L1249.46 756.585L1295.77 756.678L1295.7 794.462L1231.21 794.342L1204.24 760.454V697.662Z" fill="#009EFA"/>
<path d="M652.797 -82.3066H690.581V-32.7169L697.999 -23.3839L744.319 -23.3041L744.252 14.4932L679.759 14.3735L652.797 -19.5151V-82.3066Z" fill="#009EFA"/>
<path d="M832.319 73.9873H794.521V24.3975L787.103 15.0645L740.797 14.9848L740.863 -22.8125L805.357 -22.6929L832.319 11.1957V73.9873Z" fill="#009EFA"/>
<path d="M781.33 5.37834L738.576 40.6094L762.605 69.7686L805.359 34.5376L781.33 5.37834Z" fill="#009EFA"/>
<path d="M678.244 29.3301H716.028V78.9332L723.447 88.2528L769.753 88.3459L769.686 126.13L705.193 126.01L678.244 92.1216V29.3301Z" fill="#009EFA"/>
<path d="M747.953 33.519L705.199 68.75L729.228 97.9092L771.982 62.6782L747.953 33.519Z" fill="#009EFA"/>
<path d="M850.865 185.132H813.082V135.529L805.663 126.196L759.344 126.116L759.424 88.332L823.917 88.4517L850.865 122.327V185.132Z" fill="#009EFA"/>
<path d="M799.893 116.497L757.139 151.729L781.167 180.888L823.921 145.657L799.893 116.497Z" fill="#009EFA"/>
<path d="M696.789 140.461H734.586V190.064L742.005 199.384L788.311 199.477L788.244 237.261L723.751 237.141L696.789 203.253V140.461Z" fill="#009EFA"/>
<path d="M766.512 144.669L723.758 179.9L747.786 209.06L790.54 173.829L766.512 144.669Z" fill="#009EFA"/>
<path d="M876.311 296.769H838.527V247.165L831.095 237.846L784.789 237.753L784.856 199.969L849.349 200.088L876.311 233.977V296.769Z" fill="#009EFA"/>
<path d="M825.34 228.134L782.586 263.365L806.614 292.524L849.368 257.293L825.34 228.134Z" fill="#009EFA"/>
<path d="M722.236 252.111H760.02V301.701L767.439 311.034L813.758 311.114L813.678 348.911L749.198 348.791L722.236 314.903V252.111Z" fill="#009EFA"/>
<path d="M791.961 256.294L749.207 291.525L773.236 320.685L815.989 285.454L791.961 256.294Z" fill="#009EFA"/>
<path d="M893.182 407.901H855.398V358.312L847.98 348.979L801.674 348.886L801.74 311.102L866.234 311.221L893.182 345.11V407.901Z" fill="#009EFA"/>
<path d="M842.227 339.267L799.473 374.498L823.501 403.657L866.255 368.426L842.227 339.267Z" fill="#009EFA"/>
<path d="M739.107 363.242H776.905V412.832L784.323 422.165L830.629 422.258L830.563 460.042L766.069 459.922L739.107 426.034V363.242Z" fill="#009EFA"/>
<path d="M808.834 367.425L766.08 402.656L790.109 431.815L832.862 396.584L808.834 367.425Z" fill="#009EFA"/>
<path d="M918.629 519.537H880.845V469.947L873.413 460.614L827.107 460.534L827.174 422.75L891.667 422.87L918.629 456.745V519.537Z" fill="#009EFA"/>
<path d="M867.684 450.9L824.93 486.131L848.958 515.29L891.712 480.059L867.684 450.9Z" fill="#009EFA"/>
<path d="M764.555 474.879H802.339V524.482L809.757 533.802L856.076 533.895L856.01 571.679L791.517 571.559L764.555 537.67V474.879Z" fill="#009EFA"/>
<path d="M834.291 479.058L791.537 514.289L815.566 543.448L858.319 508.217L834.291 479.058Z" fill="#009EFA"/>
<path d="M937.188 630.683H899.404V581.08L891.972 571.747L845.666 571.667L845.732 533.883L910.226 534.002L937.188 567.891V630.683Z" fill="#009EFA"/>
<path d="M886.246 562.023L843.492 597.254L867.521 626.413L910.275 591.182L886.246 562.023Z" fill="#009EFA"/>
<path d="M783.113 586.012H820.897V635.615L828.316 644.948L874.635 645.028L874.555 682.812L810.062 682.692L783.113 648.803V586.012Z" fill="#009EFA"/>
<path d="M852.852 590.179L810.098 625.41L834.126 654.569L876.88 619.338L852.852 590.179Z" fill="#009EFA"/>
<path d="M962.621 742.319H924.837V692.73L917.419 683.397L871.1 683.304L871.179 645.52L935.673 645.639L962.621 679.528V742.319Z" fill="#009EFA"/>
<path d="M911.67 673.667L868.916 708.898L892.944 738.058L935.698 702.827L911.67 673.667Z" fill="#009EFA"/>
<path d="M808.547 697.662H846.331V747.252L853.763 756.585L900.069 756.678L900.002 794.462L835.509 794.342L808.547 760.454V697.662Z" fill="#009EFA"/>
<path d="M878.291 701.826L835.537 737.057L859.566 766.216L902.319 730.985L878.291 701.826Z" fill="#009EFA"/>
</g>
<defs>
<clipPath id="clip0_486_85">
<rect width="893.746" height="928.911" fill="white" transform="translate(-123.98 -134.449)"/>
</clipPath>
<clipPath id="clip1_486_85">
<rect width="893.746" height="928.911" fill="white" transform="translate(652.799 -134.449)"/>
</clipPath>
</defs>
</svg>
