<svg width="1216" height="701" viewBox="0 0 1216 701" fill="none" xmlns="http://www.w3.org/2000/svg">
<g clip-path="url(#clip0_486_726)">
<path d="M119.339 3.82324L152.715 37.3262V130.87L120.153 171.488H-33.8301L-66.3916 130.87V37.3262L-33.0039 3.82324H119.339Z" fill="#9FFF07" stroke="#70B600" stroke-width="7.64727"/>
<path d="M116.933 179.136L150.309 212.639V306.183L117.747 346.801H-36.2363L-68.7979 306.183V212.639L-35.4102 179.136H116.933Z" fill="#9FFF07" stroke="#70B600" stroke-width="7.64727"/>
<path d="M119.339 354.198L152.715 387.701V481.245L120.153 521.863H-33.8301L-66.3916 481.245V387.701L-33.0039 354.198H119.339Z" fill="#9FFF07" stroke="#70B600" stroke-width="7.64727"/>
<path d="M116.933 529.511L150.309 563.014V656.558L117.747 697.176H-36.2363L-68.7979 656.558V563.014L-35.4102 529.511H116.933Z" fill="#9FFF07" stroke="#70B600" stroke-width="7.64727"/>
<path d="M344.048 3.82324L377.424 37.3262V130.87L344.862 171.488H190.879L158.317 130.87V37.3262L191.705 3.82324H344.048Z" fill="#9FFF07" stroke="#70B600" stroke-width="7.64727"/>
<path d="M341.655 179.136L375.031 212.639V306.183L342.47 346.801H188.486L155.925 306.183V212.639L189.312 179.136H341.655Z" fill="#9FFF07" stroke="#70B600" stroke-width="7.64727"/>
<path d="M570.8 3.82324L604.176 37.3262V130.87L571.614 171.488H417.631L385.069 130.87V37.3262L418.457 3.82324H570.8Z" fill="#9FFF07" stroke="#70B600" stroke-width="7.64727"/>
<path d="M568.407 179.136L601.783 212.639V306.183L569.222 346.801H415.238L382.677 306.183V212.639L416.064 179.136H568.407Z" fill="#9FFF07" stroke="#70B600" stroke-width="7.64727"/>
<path d="M344.048 354.198L377.424 387.701V481.245L344.862 521.863H190.879L158.317 481.245V387.701L191.705 354.198H344.048Z" fill="#9FFF07" stroke="#70B600" stroke-width="7.64727"/>
<path d="M341.655 529.511L375.031 563.014V656.558L342.47 697.176H188.486L155.925 656.558V563.014L189.312 529.511H341.655Z" fill="#9FFF07" stroke="#70B600" stroke-width="7.64727"/>
<path d="M570.8 354.198L604.176 387.701V481.245L571.614 521.863H417.631L385.069 481.245V387.701L418.457 354.198H570.8Z" fill="#9FFF07" stroke="#70B600" stroke-width="7.64727"/>
<path d="M568.407 529.511L601.783 563.014V656.558L569.222 697.176H415.238L382.677 656.558V563.014L416.064 529.511H568.407Z" fill="#9FFF07" stroke="#70B600" stroke-width="7.64727"/>
</g>
<g clip-path="url(#clip1_486_726)">
<path d="M799.958 3.82324L833.334 37.3262V130.87L800.772 171.488H646.789L614.228 130.87V37.3262L647.615 3.82324H799.958Z" fill="#9FFF07" stroke="#70B600" stroke-width="7.64727"/>
<path d="M797.554 179.136L830.93 212.639V306.183L798.368 346.801H644.385L611.823 306.183V212.639L645.211 179.136H797.554Z" fill="#9FFF07" stroke="#70B600" stroke-width="7.64727"/>
<path d="M1026.71 3.82324L1060.09 37.3262V130.87L1027.53 171.488H873.543L840.981 130.87V37.3262L874.369 3.82324H1026.71Z" fill="#9FFF07" stroke="#70B600" stroke-width="7.64727"/>
<path d="M1024.31 179.136L1057.68 212.639V306.183L1025.12 346.801H871.137L838.575 306.183V212.639L871.963 179.136H1024.31Z" fill="#9FFF07" stroke="#70B600" stroke-width="7.64727"/>
<path d="M799.958 354.198L833.334 387.701V481.245L800.772 521.863H646.789L614.228 481.245V387.701L647.615 354.198H799.958Z" fill="#9FFF07" stroke="#70B600" stroke-width="7.64727"/>
<path d="M797.554 529.511L830.93 563.014V656.558L798.368 697.176H644.385L611.823 656.558V563.014L645.211 529.511H797.554Z" fill="#9FFF07" stroke="#70B600" stroke-width="7.64727"/>
<path d="M1026.71 354.198L1060.09 387.701V481.245L1027.53 521.863H873.543L840.981 481.245V387.701L874.369 354.198H1026.71Z" fill="#9FFF07" stroke="#70B600" stroke-width="7.64727"/>
<path d="M1024.31 529.511L1057.68 563.014V656.558L1025.12 697.176H871.137L838.575 656.558V563.014L871.963 529.511H1024.31Z" fill="#9FFF07" stroke="#70B600" stroke-width="7.64727"/>
<path d="M1251.42 3.82324L1284.8 37.3262V130.87L1252.24 171.488H1098.25L1065.69 130.87V37.3262L1099.08 3.82324H1251.42Z" fill="#9FFF07" stroke="#70B600" stroke-width="7.64727"/>
<path d="M1249.03 179.136L1282.4 212.639V306.183L1249.84 346.801H1095.86L1063.3 306.183V212.639L1096.68 179.136H1249.03Z" fill="#9FFF07" stroke="#70B600" stroke-width="7.64727"/>
<path d="M1251.42 354.198L1284.8 387.701V481.245L1252.24 521.863H1098.25L1065.69 481.245V387.701L1099.08 354.198H1251.42Z" fill="#9FFF07" stroke="#70B600" stroke-width="7.64727"/>
<path d="M1249.03 529.511L1282.4 563.014V656.558L1249.84 697.176H1095.86L1063.3 656.558V563.014L1096.68 529.511H1249.03Z" fill="#9FFF07" stroke="#70B600" stroke-width="7.64727"/>
</g>
<defs>
<clipPath id="clip0_486_726">
<rect width="907.373" height="701" fill="white" transform="translate(-299.373)"/>
</clipPath>
<clipPath id="clip1_486_726">
<rect width="907.373" height="701" fill="white" transform="translate(608)"/>
</clipPath>
</defs>
</svg>
